<?xml version="1.0" standalone="no"?>
<!DOCTYPE svg PUBLIC "-//W3C//DTD SVG 20010904//EN"
 "http://www.w3.org/TR/2001/REC-SVG-20010904/DTD/svg10.dtd">
<svg version="1.0" xmlns="http://www.w3.org/2000/svg"
 width="16.000000pt" height="16.000000pt" viewBox="0 0 16.000000 16.000000"
 preserveAspectRatio="xMidYMid meet">
<metadata>
Created by potrace 1.11, written by Peter Selinger 2001-2013
</metadata>
<g transform="translate(0.000000,16.000000) scale(0.001563,-0.001563)"
fill="#000000" stroke="none">
<path d="M0 5120 l0 -5120 5120 0 5120 0 0 5120 0 5120 -5120 0 -5120 0 0
-5120z m1603 2169 c637 -340 1158 -619 1252 -669 44 -24 238 -128 430 -230
193 -103 559 -299 815 -435 256 -137 546 -292 645 -345 l180 -96 3 -220 2
-219 -167 -100 c-93 -54 -267 -158 -388 -230 -121 -72 -344 -205 -495 -295
-151 -90 -318 -189 -370 -220 -52 -31 -230 -137 -395 -235 -165 -98 -365 -217
-445 -265 -80 -48 -257 -154 -395 -235 -137 -81 -304 -180 -370 -220 -66 -40
-244 -145 -395 -235 -151 -89 -291 -172 -310 -185 -19 -12 -45 -27 -57 -34
l-23 -12 0 338 0 338 38 21 c20 11 129 73 242 139 113 65 266 153 340 195 74
42 259 148 410 235 151 87 331 190 400 230 69 39 249 143 400 230 151 87 304
175 340 195 36 20 171 97 300 172 129 74 327 188 440 252 113 65 209 121 213
126 4 4 -86 56 -200 115 -433 225 -431 224 -1150 599 -131 68 -305 158 -388
201 -82 43 -247 128 -365 191 -118 62 -305 159 -415 216 -110 57 -287 148
-393 203 l-192 100 0 313 c0 171 2 312 5 312 3 0 209 -109 458 -241z m7467
-5379 l0 -280 -1930 0 -1930 0 0 280 0 280 1930 0 1930 0 0 -280z"/>
</g>
</svg>
